<svg width="239" height="32" viewBox="0 0 239 32" fill="none" xmlns="http://www.w3.org/2000/svg">
<path fill-rule="evenodd" clip-rule="evenodd" d="M13.618 24.7861C13.241 24.5731 12.838 24.4061 12.415 24.3131C9.57 23.6871 8.263 25.5411 6.369 28.0801C6.369 28.0801 4.489 31.0371 2.245 30.6931C1.674 30.6061 -0.0409985 30.0611 0.195001 28.0681C0.238001 27.7011 0.352002 27.3451 0.506002 27.0091L9.858 6.54009C10.557 4.92809 11.761 2.66309 14.285 2.66309C16.876 2.66309 17.921 4.61909 18.614 6.24409L27.835 25.9321C29.31 28.8411 26.396 31.5911 23.985 30.4671C22.388 29.7221 15.506 25.8501 13.618 24.7861Z" fill="white"/>
<path fill-rule="evenodd" clip-rule="evenodd" d="M164.192 21.9268C165.076 21.4028 165.768 20.6718 166.271 19.7328C166.773 18.7938 167.024 17.7358 167.024 16.5568C167.024 15.3568 166.773 14.2858 166.271 13.3478C165.768 12.4088 165.076 11.6778 164.192 11.1548C163.307 10.6298 162.297 10.3678 161.163 10.3678C160.028 10.3678 159.018 10.6358 158.134 11.1698C157.25 11.7048 156.556 12.4428 156.054 13.3808C155.552 14.3198 155.301 15.3778 155.301 16.5568C155.301 17.7358 155.552 18.7938 156.054 19.7328C156.556 20.6718 157.25 21.4028 158.134 21.9268C159.018 22.4498 160.028 22.7118 161.163 22.7118C162.297 22.7118 163.307 22.4498 164.192 21.9268ZM170.069 1.22283V24.8178C170.069 25.0108 169.912 25.1678 169.718 25.1678H167.375C167.181 25.1678 167.024 25.0108 167.024 24.8178V21.7298C166.369 22.8878 165.49 23.7768 164.388 24.3988C163.286 25.0208 162.003 25.3318 160.541 25.3318C158.904 25.3318 157.458 24.9548 156.202 24.2018C154.947 23.4488 153.97 22.4018 153.271 21.0588C152.573 19.7168 152.224 18.1828 152.224 16.4578C152.224 14.7558 152.573 13.2438 153.271 11.9238C153.97 10.6028 154.947 9.57183 156.202 8.82883C157.458 8.08683 158.892 7.71583 160.508 7.71583C161.992 7.71583 163.292 8.02183 164.405 8.63283C165.517 9.24383 166.39 10.1278 167.024 11.2848V1.22283C167.024 1.02983 167.181 0.871826 167.375 0.871826H169.718C169.912 0.871826 170.069 1.02983 170.069 1.22283Z" fill="white"/>
<path fill-rule="evenodd" clip-rule="evenodd" d="M173.559 7.84674H175.903C176.096 7.84674 176.253 8.00374 176.253 8.19774V24.8177C176.253 25.0107 176.096 25.1677 175.903 25.1677H173.559C173.365 25.1677 173.208 25.0107 173.208 24.8177V8.19774C173.208 8.00374 173.365 7.84674 173.559 7.84674ZM176.073 1.49374C176.433 1.86674 176.614 2.33474 176.614 2.90274C176.614 3.47074 176.433 3.93974 176.073 4.31074C175.713 4.68174 175.259 4.86774 174.714 4.86774C174.168 4.86774 173.715 4.68174 173.356 4.31074C172.996 3.93974 172.815 3.47074 172.815 2.90274C172.815 2.33474 172.996 1.86674 173.356 1.49374C173.715 1.12374 174.168 0.937744 174.714 0.937744C175.259 0.937744 175.713 1.12374 176.073 1.49374Z" fill="white"/>
<path fill-rule="evenodd" clip-rule="evenodd" d="M190.198 21.1729C191.027 20.6719 191.677 19.9789 192.146 19.0949C192.615 18.2099 192.85 17.2119 192.85 16.0989C192.85 14.9629 192.615 13.9529 192.146 13.0689C191.677 12.1859 191.027 11.4919 190.198 10.9899C189.368 10.4879 188.419 10.2369 187.349 10.2369C186.279 10.2369 185.324 10.4879 184.484 10.9899C183.643 11.4919 182.983 12.1859 182.503 13.0689C182.022 13.9529 181.783 14.9629 181.783 16.0989C181.804 17.8009 182.328 19.1979 183.354 20.2889C184.38 21.3809 185.712 21.9269 187.349 21.9269C188.419 21.9269 189.368 21.6759 190.198 21.1729ZM195.577 7.84692C195.771 7.84692 195.927 8.00392 195.927 8.19692V23.3999C195.927 25.0599 195.562 26.5109 194.831 27.7549C194.099 28.9989 193.068 29.9539 191.737 30.6199C190.405 31.2849 188.855 31.6179 187.087 31.6179C184.635 31.6179 182.344 30.8739 180.214 29.3849C180.063 29.2799 180.022 29.0739 180.117 28.9169L181.086 27.3099C181.193 27.1329 181.43 27.0839 181.595 27.2089C182.352 27.7869 183.136 28.2259 183.944 28.5249C184.86 28.8619 185.864 29.0319 186.956 29.0319C188.746 29.0319 190.176 28.5289 191.246 27.5259C192.315 26.5219 192.85 25.1789 192.85 23.4979V21.0749C192.239 22.1229 191.409 22.9369 190.361 23.5149C189.313 24.0929 188.113 24.3819 186.76 24.3819C185.21 24.3819 183.84 24.0269 182.65 23.3189C181.461 22.6099 180.539 21.6209 179.884 20.3549C179.228 19.0889 178.901 17.6369 178.901 15.9999C178.901 14.3849 179.228 12.9549 179.884 11.7109C180.539 10.4659 181.461 9.49492 182.65 8.79592C183.84 8.09792 185.21 7.74792 186.76 7.74792C188.135 7.74792 189.341 8.03192 190.378 8.59992C191.414 9.16792 192.239 9.97592 192.85 11.0229V8.19692C192.85 8.00392 193.007 7.84692 193.201 7.84692H195.577Z" fill="white"/>
<path fill-rule="evenodd" clip-rule="evenodd" d="M199.565 7.84674H201.908C202.102 7.84674 202.259 8.00374 202.259 8.19774V24.8177C202.259 25.0107 202.102 25.1677 201.908 25.1677H199.565C199.371 25.1677 199.213 25.0107 199.213 24.8177V8.19774C199.213 8.00374 199.371 7.84674 199.565 7.84674ZM202.079 1.49374C202.439 1.86674 202.619 2.33474 202.619 2.90274C202.619 3.47074 202.439 3.93974 202.079 4.31074C201.719 4.68174 201.265 4.86774 200.72 4.86774C200.174 4.86774 199.721 4.68174 199.361 4.31074C199.002 3.93974 198.821 3.47074 198.821 2.90274C198.821 2.33474 199.002 1.86674 199.361 1.49374C199.721 1.12374 200.174 0.937744 200.72 0.937744C201.265 0.937744 201.719 1.12374 202.079 1.49374Z" fill="white"/>
<path fill-rule="evenodd" clip-rule="evenodd" d="M215.697 23.7559C215.751 23.9109 215.691 24.0859 215.55 24.1709C214.296 24.9229 213.022 25.2989 211.729 25.2989C210.354 25.2989 209.241 24.8899 208.389 24.0709C207.538 23.2529 207.113 22.0139 207.113 20.3549V10.2349H205.008C204.814 10.2349 204.657 10.0769 204.657 9.88389V8.26089C204.657 8.06689 204.814 7.90889 205.008 7.90889H207.113V4.13789C207.113 3.94389 207.269 3.78589 207.464 3.78589H209.84C210.034 3.78589 210.19 3.94389 210.19 4.13789V7.90889H215.144C215.338 7.90889 215.495 8.06689 215.495 8.26089V9.88389C215.495 10.0769 215.338 10.2349 215.144 10.2349H210.19V19.7979C210.19 20.7589 210.365 21.4459 210.715 21.8609C211.063 22.2769 211.588 22.4839 212.286 22.4839C213.012 22.4839 213.789 22.2749 214.616 21.8559C214.805 21.7599 215.036 21.8519 215.105 22.0519L215.697 23.7559Z" fill="white"/>
<path fill-rule="evenodd" clip-rule="evenodd" d="M227.927 21.7462C228.92 21.0592 229.515 20.1472 229.711 19.0132V17.2772H224.636C223.261 17.2772 222.24 17.4842 221.574 17.8992C220.908 18.3132 220.576 18.9692 220.576 19.8632C220.576 20.7592 220.914 21.4682 221.591 21.9922C222.268 22.5162 223.173 22.7772 224.309 22.7772C225.728 22.7772 226.934 22.4332 227.927 21.7462ZM229.744 24.8172V22.7452C228.456 24.4472 226.437 25.2992 223.687 25.2992C222.486 25.2992 221.433 25.0692 220.527 24.6112C219.621 24.1532 218.922 23.5202 218.431 22.7122C217.941 21.9052 217.695 20.9992 217.695 19.9952C217.695 18.4452 218.268 17.2172 219.413 16.3102C220.56 15.4052 222.158 14.9412 224.21 14.9192H229.711V14.1002C229.711 12.8792 229.335 11.9342 228.582 11.2682C227.828 10.6022 226.732 10.2692 225.291 10.2692C223.642 10.2692 221.963 10.8252 220.255 11.9342C220.09 12.0422 219.868 11.9952 219.765 11.8262L218.856 10.3342C218.756 10.1712 218.805 9.95717 218.967 9.85517C220.101 9.14317 221.156 8.62117 222.131 8.28917C223.19 7.92917 224.45 7.74817 225.913 7.74817C228.074 7.74817 229.744 8.27817 230.923 9.33717C232.102 10.3952 232.702 11.8742 232.724 13.7732L232.756 24.8162C232.756 25.0112 232.599 25.1682 232.405 25.1682H230.095C229.902 25.1682 229.744 25.0112 229.744 24.8172Z" fill="white"/>
<path fill-rule="evenodd" clip-rule="evenodd" d="M235.987 0.87207H238.331C238.525 0.87207 238.682 1.02907 238.682 1.22307V24.8171C238.682 25.0111 238.525 25.1681 238.331 25.1681H235.987C235.794 25.1681 235.636 25.0111 235.636 24.8171V1.22307C235.636 1.02907 235.794 0.87207 235.987 0.87207Z" fill="white"/>
<path fill-rule="evenodd" clip-rule="evenodd" d="M52.5478 21.0742C53.3118 20.5722 53.7698 19.9392 53.9228 19.1752V17.6032H49.9608C48.9788 17.6032 48.2518 17.7612 47.7828 18.0782C47.3138 18.3942 47.0788 18.9022 47.0788 19.6002C47.0788 20.2782 47.3238 20.8182 47.8158 21.2212C48.3068 21.6262 48.9788 21.8282 49.8288 21.8282C50.8768 21.8282 51.7828 21.5772 52.5478 21.0742ZM53.9558 24.8492V23.1372C53.3658 23.8802 52.6018 24.4472 51.6628 24.8412C50.7248 25.2332 49.6438 25.4292 48.4218 25.4292C46.5658 25.4292 45.0918 24.9222 44.0008 23.9072C42.9088 22.8912 42.3628 21.5652 42.3628 19.9282C42.3628 18.2692 42.9468 16.9762 44.1148 16.0482C45.2828 15.1202 46.9368 14.6452 49.0758 14.6232H53.9228V14.2962C53.9228 13.3572 53.6108 12.6322 52.9888 12.1182C52.3668 11.6052 51.4558 11.3482 50.2548 11.3482C48.7158 11.3482 47.0788 11.8032 45.3468 12.7102C45.1668 12.8032 44.9438 12.7302 44.8608 12.5462L43.5838 9.72623C43.5058 9.55323 43.5788 9.34823 43.7498 9.26523C45.0318 8.64323 46.2398 8.18023 47.3738 7.87823C48.5958 7.55023 49.9388 7.38623 51.4018 7.38623C53.7588 7.38623 55.5868 7.94323 56.8868 9.05623C58.1848 10.1702 58.8458 11.7202 58.8668 13.7072L58.8998 24.8482C58.9008 25.0432 58.7428 25.2002 58.5488 25.2002H54.3068C54.1118 25.2002 53.9558 25.0442 53.9558 24.8492Z" fill="white"/>
<path fill-rule="evenodd" clip-rule="evenodd" d="M70.2637 11.7091C68.9967 11.7091 67.9657 12.1411 67.1687 13.0031C66.3717 13.8651 65.9737 15.0061 65.9737 16.4251C65.9737 17.8441 66.3667 18.9951 67.1527 19.8791C67.9387 20.7641 68.9427 21.2051 70.1647 21.2051C71.8727 21.2051 73.1737 20.6081 74.0677 19.4151C74.1797 19.2671 74.3897 19.2311 74.5437 19.3361L77.4497 21.3101C77.6097 21.4191 77.6497 21.6371 77.5427 21.7981C76.8157 22.8991 75.8357 23.7611 74.6027 24.3821C73.2597 25.0591 71.6937 25.3971 69.9037 25.3971C68.1347 25.3971 66.5737 25.0261 65.2207 24.2841C63.8667 23.5421 62.8137 22.4941 62.0607 21.1401C61.3077 19.7871 60.9307 18.2261 60.9307 16.4571C60.9307 14.6681 61.3077 13.0901 62.0607 11.7261C62.8137 10.3611 63.8717 9.30207 65.2367 8.54907C66.6007 7.79607 68.1787 7.41907 69.9687 7.41907C71.6497 7.41907 73.1457 7.74107 74.4547 8.38507C75.6547 8.97507 76.6337 9.78807 77.3937 10.8261C77.5097 10.9841 77.4767 11.2071 77.3177 11.3221L74.4537 13.3871C74.3107 13.4901 74.1107 13.4721 73.9927 13.3401C73.0167 12.2531 71.7737 11.7091 70.2637 11.7091Z" fill="white"/>
<path fill-rule="evenodd" clip-rule="evenodd" d="M91.5479 14.9512C91.5039 13.7942 91.1339 12.8662 90.4349 12.1682C89.7359 11.4692 88.8089 11.1192 87.6519 11.1192C86.5599 11.1192 85.6489 11.4642 84.9169 12.1512C84.1859 12.8392 83.7219 13.7722 83.5259 14.9512H91.5479ZM94.0859 9.87519C95.5599 11.5132 96.2969 13.7942 96.2969 16.7202C96.2969 17.0632 96.2919 17.3552 96.2819 17.5962C96.2759 17.7842 96.1199 17.9302 95.9319 17.9302H83.6239C83.9069 19.0442 84.4529 19.9122 85.2609 20.5342C86.0689 21.1562 87.0399 21.4682 88.1759 21.4682C89.0049 21.4682 89.8019 21.3092 90.5659 20.9932C91.2319 20.7172 91.8389 20.3292 92.3889 19.8302C92.5269 19.7042 92.7389 19.7132 92.8699 19.8462L95.0459 22.0482C95.1779 22.1802 95.1839 22.3972 95.0539 22.5322C94.2039 23.4172 93.1939 24.1042 92.0239 24.5952C90.7459 25.1302 89.3209 25.3972 87.7499 25.3972C85.8939 25.3972 84.2729 25.0262 82.8869 24.2842C81.4999 23.5422 80.4309 22.4942 79.6779 21.1392C78.9249 19.7872 78.5479 18.2252 78.5479 16.4572C78.5479 14.6682 78.9299 13.0902 79.6939 11.7252C80.4579 10.3612 81.5269 9.30219 82.9029 8.54919C84.2779 7.79619 85.8509 7.41919 87.6189 7.41919C90.4559 7.41919 92.6119 8.23819 94.0859 9.87519Z" fill="white"/>
<path fill-rule="evenodd" clip-rule="evenodd" d="M107.563 11.4961C106.625 11.2011 105.784 11.0541 105.042 11.0541C104.43 11.0541 103.939 11.1641 103.568 11.3821C103.197 11.6001 103.011 11.9281 103.011 12.3641C103.011 12.8451 103.262 13.2161 103.764 13.4771C104.266 13.7391 105.085 14.0341 106.22 14.3611C107.464 14.7331 108.491 15.0992 109.298 15.4592C110.106 15.8182 110.805 16.3531 111.394 17.0631C111.984 17.7721 112.279 18.7061 112.279 19.8631C112.279 21.6091 111.607 22.9691 110.264 23.9391C108.922 24.9111 107.203 25.3972 105.107 25.3972C103.667 25.3972 102.28 25.1841 100.948 24.7591C99.7161 24.3651 98.6341 23.8171 97.7021 23.1151C97.5691 23.0161 97.5291 22.8351 97.6001 22.6851L98.9301 19.9191C99.0241 19.7241 99.2711 19.6581 99.4481 19.7851C100.255 20.3641 101.143 20.8211 102.111 21.1561C103.212 21.5391 104.255 21.7291 105.238 21.7291C105.915 21.7291 106.455 21.6151 106.859 21.3861C107.263 21.1561 107.464 20.8121 107.464 20.3541C107.464 19.8521 107.208 19.4591 106.695 19.1751C106.182 18.8921 105.358 18.5861 104.223 18.2591C103.022 17.9091 102.023 17.5591 101.227 17.2111C100.429 16.8611 99.7481 16.3322 99.1801 15.6222C98.6121 14.9132 98.3291 13.9901 98.3291 12.8551C98.3291 11.1081 98.9841 9.75615 100.293 8.79515C101.603 7.83415 103.262 7.35315 105.271 7.35315C106.471 7.35315 107.672 7.52315 108.873 7.86115C109.963 8.16915 110.964 8.59815 111.875 9.14815C112.031 9.24215 112.084 9.44315 112.002 9.60515L110.576 12.4321C110.487 12.6091 110.268 12.6751 110.093 12.5801C109.241 12.1201 108.398 11.7591 107.563 11.4961Z" fill="white"/>
<path fill-rule="evenodd" clip-rule="evenodd" d="M135.236 12.9531C134.417 13.8491 134.007 15.0161 134.007 16.4571C134.007 17.8981 134.417 19.0661 135.236 19.9611C136.054 20.8561 137.119 21.3041 138.428 21.3041C139.716 21.3041 140.77 20.8561 141.589 19.9611C142.407 19.0661 142.816 17.8981 142.816 16.4571C142.816 15.0161 142.407 13.8491 141.589 12.9531C140.77 12.0581 139.716 11.6101 138.428 11.6101C137.119 11.6101 136.054 12.0581 135.236 12.9531ZM143.357 8.53207C144.787 9.27507 145.894 10.3231 146.68 11.6771C147.466 13.0301 147.859 14.6011 147.859 16.3911C147.859 18.1601 147.466 19.7261 146.68 21.0911C145.894 22.4551 144.787 23.5151 143.357 24.2671C141.926 25.0201 140.284 25.3971 138.428 25.3971C136.55 25.3971 134.897 25.0201 133.467 24.2671C132.037 23.5151 130.929 22.4551 130.143 21.0911C129.357 19.7261 128.965 18.1601 128.965 16.3911C128.965 14.6011 129.357 13.0301 130.143 11.6771C130.929 10.3231 132.037 9.27507 133.467 8.53207C134.897 7.79107 136.55 7.41907 138.428 7.41907C140.284 7.41907 141.926 7.79107 143.357 8.53207Z" fill="white"/>
<path fill-rule="evenodd" clip-rule="evenodd" d="M126.741 17.0635C126.152 16.3535 125.453 15.8185 124.645 15.4595C123.838 15.0985 122.811 14.7335 121.567 14.3615C120.432 14.0345 119.613 13.7395 119.111 13.4775C118.609 13.2145 118.358 12.8445 118.358 12.3645C118.358 11.9275 118.544 11.5995 118.915 11.3815C119.286 11.1635 119.777 11.0535 120.388 11.0535C121.131 11.0535 121.971 11.2015 122.91 11.4965C123.745 11.7585 124.588 12.1205 125.44 12.5805C125.615 12.6745 125.834 12.6095 125.923 12.4315L127.349 9.60552C127.431 9.44352 127.378 9.24252 127.222 9.14852C126.311 8.59752 125.31 8.16852 124.22 7.86152C123.019 7.52352 121.818 7.35352 120.618 7.35352C118.609 7.35352 116.95 7.83452 115.64 8.79452C114.331 9.75552 113.676 11.1085 113.676 12.8555C113.676 13.9905 113.959 14.9135 114.527 15.6225C115.095 16.3325 115.776 16.8615 116.574 17.2105C117.37 17.5595 118.369 17.9095 119.57 18.2585C120.705 18.5855 121.529 18.8915 122.042 19.1745C122.554 19.4595 122.811 19.8525 122.811 20.3545C122.811 20.8125 122.61 21.1565 122.206 21.3855C121.802 21.6155 121.262 21.7295 120.585 21.7295C119.602 21.7295 118.559 21.5395 117.458 21.1565C116.49 20.8215 115.602 20.3645 114.795 19.7855C114.666 19.6925 114.5 19.7035 114.383 19.7925C114.383 19.8155 114.384 19.8385 114.384 19.8635C114.384 21.1915 114.093 22.3985 113.533 23.4555C114.351 23.9955 115.27 24.4305 116.296 24.7585C117.627 25.1845 119.013 25.3975 120.454 25.3975C122.55 25.3975 124.269 24.9115 125.612 23.9395C126.954 22.9685 127.626 21.6095 127.626 19.8635C127.626 18.7065 127.331 17.7725 126.741 17.0635Z" fill="white"/>
</svg>
